<?xml version="1.0" standalone="no"?>
<!DOCTYPE svg PUBLIC "-//W3C//DTD SVG 20010904//EN"
 "http://www.w3.org/TR/2001/REC-SVG-20010904/DTD/svg10.dtd">
<svg version="1.0" xmlns="http://www.w3.org/2000/svg"
 width="39.000000pt" height="46.000000pt" viewBox="0 0 39.000000 46.000000"
 preserveAspectRatio="xMidYMid meet">
<metadata>
Created by potrace 1.15, written by Peter Selinger 2001-2017
</metadata>
<g transform="translate(0.000000,46.000000) scale(0.100000,-0.100000)"
fill="#000000" stroke="none">
<path d="M70 325 l0 -115 -30 0 c-20 0 -30 -5 -30 -15 0 -10 10 -15 30 -15 28
0 30 -3 30 -35 0 -32 -2 -35 -30 -35 -20 0 -30 -5 -30 -15 0 -10 10 -15 30
-15 28 0 30 -3 30 -35 0 -28 4 -35 20 -35 16 0 20 7 20 35 l0 35 55 0 c42 0
55 3 55 15 0 12 -13 15 -55 15 l-55 0 0 35 0 35 83 0 c124 0 167 34 167 131 0
22 -7 53 -15 69 -25 48 -61 60 -175 60 l-100 0 0 -115z m221 47 c32 -36 36
-69 14 -111 -18 -35 -60 -51 -136 -51 l-59 0 0 101 0 101 76 -4 c71 -3 78 -6
105 -36z"/>
</g>
</svg>
